HIERARCHY
ROOT hip
{
	OFFSET 0.000000 0.000000 0.000000
	CHANNELS 6 Xposition Yposition Zposition Xrotation Zrotation Yrotation 
	JOINT abdomen
	{
		OFFSET 0.000000 3.422050 0.000000
		CHANNELS 3 Xrotation Zrotation Yrotation 
		JOINT chest
		{
			OFFSET 0.000000 8.486693 -0.684411
			CHANNELS 3 Xrotation Zrotation Yrotation 
			JOINT neck
			{
				OFFSET 0.000000 10.266162 -0.273764
				CHANNELS 3 Xrotation Zrotation Yrotation 
				JOINT head
				{
					OFFSET 0.000000 3.148285 0.000000
					CHANNELS 3 Xrotation Zrotation Yrotation 
					End Site
					{
						OFFSET 0.000000 3.148289 0.000000
					}
				}
			}
			JOINT lCollar
			{
				OFFSET 3.422053 6.707223 -0.821293
				CHANNELS 3 Yrotation Zrotation Xrotation 
				JOINT lShldr
				{
					OFFSET 3.285171 0.000000 0.000000
					CHANNELS 3 Zrotation Yrotation Xrotation 
					JOINT lForeArm
					{
						OFFSET 10.129278 0.000000 0.000000
						CHANNELS 3 Yrotation Zrotation Xrotation 
						JOINT lHand
						{
							OFFSET 8.486692 0.000000 0.000000
							CHANNELS 3 Zrotation Yrotation Xrotation 
							End Site
							{
								OFFSET 4.106464 0.000000 0.000000
							}
						}
					}
				}
			}
			JOINT rCollar
			{
				OFFSET -3.558935 6.707223 -0.821293
				CHANNELS 3 Yrotation Zrotation Xrotation 
				JOINT rShldr
				{
					OFFSET -3.148289 0.000000 0.000000
					CHANNELS 3 Zrotation Yrotation Xrotation 
					JOINT rForeArm
					{
						OFFSET -10.266159 0.000000 0.000000
						CHANNELS 3 Yrotation Zrotation Xrotation 
						JOINT rHand
						{
							OFFSET -8.349810 0.000000 0.000000
							CHANNELS 3 Zrotation Yrotation Xrotation 
							End Site
							{
								OFFSET -4.106464 0.000000 0.000000
							}
						}
					}
				}
			}
		}
	}
	JOINT lThigh
	{
		OFFSET 5.338403 -1.642589 1.368821
		CHANNELS 3 Xrotation Zrotation Yrotation 
		JOINT lShin
		{
			OFFSET -2.053232 -20.121670 0.000000
			CHANNELS 3 Xrotation Zrotation Yrotation 
			JOINT lFoot
			{
				OFFSET 0.000000 -19.300380 -1.231939
				CHANNELS 3 Xrotation Yrotation Zrotation 
				End Site
				{
					OFFSET 0.000000 -2.463878 4.653993
				}
			}
		}
	}
	JOINT rThigh
	{
		OFFSET -5.338403 -1.642589 1.368821
		CHANNELS 3 Xrotation Zrotation Yrotation 
		JOINT rShin
		{
			OFFSET 2.053232 -20.121670 0.000000
			CHANNELS 3 Xrotation Zrotation Yrotation 
			JOINT rFoot
			{
				OFFSET 0.000000 -19.300380 -1.231939
				CHANNELS 3 Xrotation Yrotation Zrotation 
				End Site
				{
					OFFSET 0.000000 -2.463878 4.653993
				}
			}
		}
	}
}
MOTION
Frames: 19
Frame Time: 0.022176
0.000000 43.528500 0.000000 0.000000 0.000000 0.000000 0.000000 0.000000 0.000000 0.000000 0.000000 0.000000 0.000000 0.000000 0.000000 0.000000 0.000000 0.000000 0.000000 0.000000 0.000000 0.000000 0.000000 0.000000 0.000000 0.000000 0.000000 0.000000 0.000000 0.000000 0.000000 0.000000 0.000000 0.000000 0.000000 0.000000 0.000000 0.000000 0.000000 0.000000 0.000000 0.000000 0.000000 0.000000 0.000000 0.000000 0.000000 0.000000 0.000000 0.000000 0.000000 0.000000 0.000000 0.000000 0.000000 0.000000 0.000000 0.000000 0.000000 0.000000 
-0.309380 41.951542 -1.126404 2.999106 0.000000 0.000000 -6.652879 -1.105105 -0.841350 10.457417 -1.455079 16.237476 0.000000 13.997003 0.000000 0.000000 0.000000 0.000000 -71.471062 -2.915300 28.212255 -35.269264 -12.142046 -14.870818 -49.034359 11.841357 -65.063591 -23.091616 10.268474 30.356903 6.478242 -3.356175 -17.955166 79.286293 19.652296 7.191452 41.488514 -11.799364 5.213263 65.329277 -15.711056 5.129348 -24.933285 10.641156 9.593321 37.256649 0.768279 -0.554792 -12.310752 6.568647 -14.603754 -18.603514 -20.307968 -5.365413 18.417234 2.113279 0.262914 2.742763 -7.606884 23.754942 
-0.309380 41.792675 -0.959863 1.947629 0.000000 0.000000 -6.652879 -1.105105 -0.841350 11.563708 -1.455157 16.237379 -0.210051 14.079658 -0.294986 -0.165671 0.014298 -0.118085 -71.471062 -2.915301 28.212257 -35.269264 -12.142046 -14.870818 -49.034363 11.841355 -65.063591 -23.105789 10.264134 30.355888 7.044730 -3.227002 -18.302416 78.655655 19.659945 6.933277 41.311398 -12.021379 5.176455 65.699272 -15.691274 4.799454 -23.987835 10.716402 9.636658 38.104752 0.919884 -0.553247 -13.033977 6.518064 -14.746341 -17.891256 -20.455832 -5.518094 19.658005 1.887366 0.321884 1.843378 -7.316406 23.906166 
-0.309380 41.633812 -0.793323 0.894726 0.000000 0.000000 -6.652879 -1.105105 -0.841350 12.671665 -1.455234 16.237286 -0.420757 14.161318 -0.590591 -0.331414 0.028259 -0.236241 -71.471062 -2.915300 28.212255 -35.269264 -12.142046 -14.870818 -49.034359 11.841357 -65.063591 -23.119955 10.259793 30.354874 7.612255 -3.101192 -18.651087 78.024704 19.664927 6.674904 41.133957 -12.243297 5.138910 66.069145 -15.669431 4.469661 -23.041059 10.791015 9.681313 38.953678 1.071587 -0.549452 -13.757759 6.469238 -14.889644 -17.177485 -20.601995 -5.672966 20.900812 1.659784 0.376039 0.942746 -7.027983 24.062048 
-0.309380 41.474945 -0.626783 -0.159430 0.000000 0.000000 -6.652879 -1.105105 -0.841350 13.781079 -1.455309 16.237188 -0.632112 14.241973 -0.886807 -0.497228 0.041881 -0.354468 -71.471062 -2.915300 28.212257 -35.269264 -12.142047 -14.870818 -49.034367 11.841356 -65.063591 -23.134121 10.255451 30.353859 8.180765 -2.978778 -19.001135 77.393486 19.667225 6.416388 40.956215 -12.465123 5.100626 66.438934 -15.645537 4.139996 -22.093094 10.864963 9.727270 39.803333 1.223338 -0.543404 -14.482030 6.422188 -15.033630 -16.462242 -20.746414 -5.830001 22.145401 1.430689 0.425318 0.040951 -6.741738 24.222559 
-0.309380 41.316082 -0.460243 -1.214661 0.000000 0.000000 -6.652878 -1.105105 -0.841350 14.891749 -1.455382 16.237089 -0.844108 14.321621 -1.183628 -0.663111 0.055164 -0.472762 -71.471062 -2.915299 28.212254 -35.269260 -12.142045 -14.870818 -49.034359 11.841358 -65.063591 -23.148285 10.251109 30.352846 8.750202 -2.859788 -19.352501 76.762039 19.666836 6.157773 40.778137 -12.686845 5.061601 66.808586 -15.619595 3.810482 -21.144056 10.938210 9.774519 40.653633 1.375086 -0.535099 -15.206735 6.376925 -15.178266 -15.745584 -20.889050 -5.989175 23.391506 1.200238 0.469666 -0.861920 -6.457788 24.387636 
-0.309380 41.157215 -0.293703 -2.270791 0.000000 0.000000 -6.652879 -1.105105 -0.841350 16.003464 -1.455453 16.236988 -1.056738 14.400253 -1.481045 -0.829061 0.068107 -0.591124 -71.471062 -2.915300 28.212255 -35.269264 -12.142046 -14.870818 -49.034359 11.841357 -65.063591 -23.162453 10.246767 30.351831 9.320512 -2.744251 -19.705124 76.130455 19.663773 5.899114 40.599758 -12.908464 5.021833 67.178085 -15.591598 3.481148 -20.194071 11.010728 9.823042 41.504494 1.526781 -0.524535 -15.931806 6.333468 -15.323521 -15.027562 -21.029854 -6.150455 24.638874 0.968593 0.509032 -1.765778 -6.176252 24.557222 
-0.309380 40.998352 -0.127163 -3.327639 0.000000 0.000000 -6.652879 -1.105105 -0.841350 17.116024 -1.455523 16.236889 -1.269993 14.477863 -1.779050 -0.995077 0.080711 -0.709550 -71.471062 -2.915300 28.212255 -35.269264 -12.142046 -14.870818 -49.034359 11.841357 -65.063591 -23.176619 10.242424 30.350813 9.891639 -2.632196 -20.058954 75.498764 19.658016 5.640453 40.421047 -13.129971 4.981320 67.547401 -15.561557 3.152019 -19.243282 11.082487 9.872825 42.355843 1.678371 -0.511712 -16.657183 6.291826 -15.469356 -14.308231 -21.168806 -6.313817 25.887232 0.735917 0.543375 -2.670530 -5.897248 24.731266 
-0.309380 40.839485 0.039378 -4.385028 0.000000 0.000000 -6.652879 -1.105105 -0.841350 18.229212 -1.455591 16.236788 -1.483865 14.554440 -2.077634 -1.161156 0.092974 -0.828040 -71.471062 -2.915300 28.212255 -35.269268 -12.142047 -14.870819 -49.034359 11.841357 -65.063591 -23.190786 10.238082 30.349810 10.463523 -2.523647 -20.413931 74.867043 19.649580 5.381849 40.241997 -13.351359 4.940056 67.916489 -15.529465 2.823120 -18.291803 11.153454 9.923844 43.207577 1.829805 -0.496629 -17.382792 6.252013 -15.615735 -13.587651 -21.305861 -6.479226 27.136316 0.502376 0.572659 -3.576087 -5.620894 24.909719 
-0.309380 40.680622 0.205918 -5.442775 0.000000 0.000000 -6.652879 -1.105105 -0.841350 19.342815 -1.455655 16.236677 -1.698346 14.629980 -2.376791 -1.327298 0.104896 -0.946591 -71.471062 -2.915300 28.212255 -35.269268 -12.142047 -14.870819 -49.034359 11.841357 -65.063591 -23.204954 10.233741 30.348804 11.036111 -2.418632 -20.770004 74.235321 19.638449 5.123344 40.062626 -13.572630 4.898045 68.285378 -15.495339 2.494476 -17.339773 11.223598 9.976087 44.059616 1.981033 -0.479291 -18.108572 6.214037 -15.762622 -12.865867 -21.440979 -6.646652 28.385866 0.268137 0.596855 -4.482351 -5.347301 25.092505 
-0.309380 40.521755 0.372458 -6.500705 0.000000 0.000000 -6.652879 -1.105105 -0.841350 20.456633 -1.455719 16.236572 -1.913429 14.704479 -2.676512 -1.493500 0.116477 -1.065202 -71.471062 -2.915300 28.212255 -35.269272 -12.142049 -14.870821 -49.034359 11.841357 -65.063591 -23.219118 10.229396 30.347792 11.609335 -2.317169 -21.127102 73.603676 19.624636 4.864992 39.882904 -13.793772 4.855278 68.653961 -15.459168 2.166114 -16.387316 11.292892 10.029531 44.911880 2.132004 -0.459700 -18.834465 6.177913 -15.909985 -12.142947 -21.574139 -6.816064 29.635607 0.033367 0.615941 -5.389228 -5.076580 25.279554 
-0.309380 40.362888 0.538998 -7.558636 0.000000 0.000000 -6.652879 -1.105105 -0.841350 21.570457 -1.455781 16.236467 -2.129104 14.777927 -2.976788 -1.659762 0.127716 -1.183872 -71.471054 -2.915302 28.212254 -35.269264 -12.142046 -14.870818 -49.034355 11.841353 -65.063576 -23.233282 10.225051 30.346781 12.183143 -2.219283 -21.485172 72.972168 19.608143 4.606842 39.702850 -14.014783 4.811756 69.022293 -15.420969 1.838059 -15.434563 11.361303 10.084155 45.764290 2.282667 -0.437861 -19.560394 6.143646 -16.057783 -11.418943 -21.705294 -6.987426 30.885275 -0.201763 0.629901 -6.296618 -4.808842 25.470810 
-0.309380 40.204025 0.705538 -8.616384 0.000000 0.000000 -6.652879 -1.105105 -0.841350 22.684065 -1.455840 16.236361 -2.345363 14.850319 -3.277609 -1.826080 0.138613 -1.302598 -71.471062 -2.915301 28.212254 -35.269264 -12.142046 -14.870818 -49.034359 11.841357 -65.063591 -23.247450 10.220709 30.345776 12.757473 -2.124994 -21.844160 72.340858 19.588976 4.348942 39.522434 -14.235654 4.767474 69.390274 -15.380733 1.510336 -14.481646 11.428803 10.139936 46.616753 2.432971 -0.413783 -20.286308 6.111248 -16.205992 -10.693915 -21.834414 -7.160700 32.134609 -0.437083 0.638730 -7.204422 -4.544195 25.666191 
-0.309380 40.045158 0.872078 -9.673774 0.000000 0.000000 -6.652879 -1.105105 -0.841350 23.797251 -1.455897 16.236252 -2.562197 14.921648 -3.578969 -1.992453 0.149167 -1.421378 -71.471062 -2.915300 28.212255 -35.269264 -12.142046 -14.870818 -49.034359 11.841357 -65.063591 -23.261614 10.216365 30.344772 13.332268 -2.034320 -22.204004 71.709778 19.567129 4.091343 39.341694 -14.456389 4.722436 69.757942 -15.338476 1.182973 -13.528698 11.495370 10.196856 47.469173 2.582867 -0.387472 -21.012133 6.080725 -16.354565 -9.967925 -21.961466 -7.335853 33.383347 -0.672424 0.642424 -8.112535 -4.282743 25.865620 
-0.309380 39.886295 1.038619 -10.730621 0.000000 0.000000 -6.652879 -1.105105 -0.841350 24.909805 -1.455952 16.236139 -2.779598 14.991908 -3.880858 -2.158879 0.159378 -1.540211 -71.471062 -2.915300 28.212255 -35.269264 -12.142047 -14.870819 -49.034359 11.841357 -65.063591 -23.275780 10.212020 30.343767 13.907459 -1.947279 -22.564638 71.079010 19.542620 3.834094 39.160587 -14.676977 4.676632 70.125244 -15.294197 0.855990 -12.575845 11.560968 10.254883 48.321484 2.732304 -0.358938 -21.737803 6.052081 -16.503462 -9.241032 -22.086422 -7.512846 34.631214 -0.907615 0.640992 -9.020859 -4.024590 26.069029 
-0.309380 39.727428 1.205159 -11.786749 0.000000 0.000000 -6.652879 -1.105105 -0.841350 26.021523 -1.456005 16.236029 -2.997557 15.061095 -4.183267 -2.325358 0.169246 -1.659096 -71.471062 -2.915300 28.212255 -35.269264 -12.142047 -14.870818 -49.034359 11.841357 -65.063591 -23.289946 10.207678 30.342772 14.482991 -1.863886 -22.926003 70.448601 19.515451 3.577245 38.979122 -14.897409 4.630063 70.492172 -15.247906 0.529414 -11.623223 11.625582 10.314000 49.173580 2.881233 -0.328193 -22.463261 6.025327 -16.652660 -8.513295 -22.209248 -7.691641 35.877956 -1.142489 0.634446 -9.929290 -3.769835 26.276329 
-0.309380 39.568565 1.371699 -12.841980 0.000000 0.000000 -6.652879 -1.105105 -0.841350 27.132193 -1.456055 16.235916 -3.216064 15.129197 -4.486186 -2.491886 0.178770 -1.778030 -71.471069 -2.915302 28.212255 -35.269264 -12.142046 -14.870818 -49.034359 11.841357 -65.063591 -23.304106 10.203330 30.341761 15.058802 -1.784156 -23.288042 69.818619 19.485626 3.320842 38.797298 -15.117688 4.582727 70.858681 -15.199608 0.203270 -10.670962 11.689178 10.374177 50.025394 3.029604 -0.295248 -23.188433 6.000462 -16.802109 -7.784782 -22.329916 -7.872196 37.123299 -1.376877 0.622806 -10.837714 -3.518574 26.487434 
-0.309380 39.409698 1.538239 -13.896134 0.000000 0.000000 -6.652879 -1.105105 -0.841350 28.241604 -1.456103 16.235798 -3.435110 15.196215 -4.789606 -2.658463 0.187949 -1.897012 -71.471062 -2.915301 28.212254 -35.269264 -12.142045 -14.870816 -49.034359 11.841358 -65.063591 -23.318272 10.198987 30.340763 15.634826 -1.708100 -23.650688 69.189110 19.453163 3.064936 38.615108 -15.337800 4.534618 71.224739 -15.149300 -0.122416 -9.719193 11.751735 10.435389 50.876827 3.177368 -0.260118 -23.913256 5.977492 -16.951780 -7.055553 -22.448399 -8.054473 38.366993 -1.610613 0.606101 -11.746026 -3.270900 26.702251 
-0.309380 39.250835 1.704779 -14.949039 0.000000 0.000000 -6.652879 -1.105105 -0.841350 29.349562 -1.456150 16.235687 -3.654687 15.262141 -5.093519 -2.825086 0.196784 -2.016040 -71.471046 -2.915300 28.212254 -35.269264 -12.142045 -14.870816 -49.034359 11.841357 -65.063591 -23.332434 10.194639 30.339758 16.211000 -1.635730 -24.013878 68.560104 19.418056 2.809572 38.432541 -15.557749 4.485737 71.590332 -15.097001 -0.447621 -8.768046 11.813230 10.497609 51.727791 3.324478 -0.222818 -24.637663 5.956418 -17.101631 -6.325676 -22.564669 -8.238429 39.608784 -1.843532 0.584363 -12.654124 -3.026909 26.920710 
